# xmcd
#
# Track frame offsets:
#	150
#	11763
#	28760
#	48139
#	61787
#	85084
#	104091
#	120672
#	135725
#	156730
#	167792
#	182816
#	201991
#	221509
#	238784
#	255281
#	272924
#	289495
#	308778
#	323400
#
# Disc length: 4579 seconds
#
# Revision: 1
# Processed by: cddbd v1.5.2PL0 Copyright (c) Steve Scherf et al.
# Submitted via: audiograbber 1.83.01
#
DISCID=2711e114
DTITLE=Billy Ray Cyrus - The Definitive Collection CD2
DYEAR=2014
DGENRE=Country
TTITLE0=Roll Me Over
TTITLE1=Trail Of Tears
TTITLE2=Three Little Words
TTITLE3=Crazy Mama
TTITLE4=Call Me Daddy
TTITLE5=Harper Valley P.T.A.
TTITLE6=Sing Me Back Home
TTITLE7=Truth Is I Lied
TTITLE8=Should I Say
TTITLE9=Tenntucky
TTITLE10=Busy Man
TTITLE11=Time For Letting Go
TTITLE12=How's My World Treating You
TTITLE13=Give My Heart To You
TTITLE14=Deja Blue
TTITLE15=I Ain't Even Left
TTITLE16=One Last Thrill
TTITLE17=Bluegrass State Of Mind
TTITLE18=Cover To Cover
TTITLE19=It's All The Same To Me
EXTD=
EXTT0=
EXTT1=
EXTT2=
EXTT3=
EXTT4=
EXTT5=
EXTT6=
EXTT7=
EXTT8=
EXTT9=
EXTT10=
EXTT11=
EXTT12=
EXTT13=
EXTT14=
EXTT15=
EXTT16=
EXTT17=
EXTT18=
EXTT19=
PLAYORDER=
